<?xml version="1.0" encoding="UTF-8"?>
<svg width="128" height="128" viewBox="0 0 128 128" xmlns="http://www.w3.org/2000/svg">
  <!-- Background circle -->
  <circle cx="64" cy="64" r="56" fill="#2c5aa0" stroke="#1e3a5f" stroke-width="4"/>
  
  <!-- Document icon base -->
  <rect x="28" y="20" width="56" height="72" rx="4" fill="white" stroke="#e0e0e0" stroke-width="2"/>
  
  <!-- Document lines representing text -->
  <rect x="36" y="32" width="40" height="3" rx="1.5" fill="#666"/>
  <rect x="36" y="40" width="32" height="3" rx="1.5" fill="#666"/>
  
  <!-- Checkboxes and tasks -->
  <rect x="36" y="50" width="8" height="8" rx="1" fill="white" stroke="#2c5aa0" stroke-width="2"/>
  <path d="M38 54 L41 57 L46 51" stroke="#2c5aa0" stroke-width="2" fill="none" stroke-linecap="round"/>
  <rect x="48" y="52" width="24" height="2" rx="1" fill="#666"/>
  
  <rect x="36" y="62" width="8" height="8" rx="1" fill="white" stroke="#999" stroke-width="2"/>
  <rect x="48" y="64" width="20" height="2" rx="1" fill="#666"/>
  
  <rect x="36" y="74" width="8" height="8" rx="1" fill="white" stroke="#999" stroke-width="2"/>
  <rect x="48" y="76" width="28" height="2" rx="1" fill="#666"/>
  
  <!-- PRD badge -->
  <rect x="20" y="90" width="28" height="16" rx="8" fill="#ff6b35"/>
  <text x="34" y="102" text-anchor="middle" fill="white" font-family="Arial, sans-serif" font-size="10" font-weight="bold">PRD</text>
  
  <!-- Progress indicator -->
  <circle cx="88" cy="98" r="12" fill="white" stroke="#2c5aa0" stroke-width="3"/>
  <path d="M82 98 L86 102 L94 90" stroke="#2c5aa0" stroke-width="3" fill="none" stroke-linecap="round"/>
</svg>