<svg width="128" height="128" viewBox="0 0 128 128" fill="none" xmlns="http://www.w3.org/2000/svg">
<rect width="128" height="128" fill="black"/>
<path d="M18.9321 30.7668V39.321H9.50586V9.50586H28.6906C36.2482 9.50586 41.2312 13.1601 41.2312 20.1363C41.2312 27.1126 36.2482 30.7668 28.6906 30.7668H18.9321ZM18.9321 22.9601H28.1923C30.6423 22.9601 31.9295 21.8389 31.9295 20.1363C31.9295 18.4338 30.6423 17.3126 28.1923 17.3126H18.9321V22.9601Z" fill="white"/>
<path d="M55.9858 30.1855V39.321H46.5596V9.50586H66.1595C73.8002 9.50586 78.7002 13.2847 78.7002 19.8457C78.7002 24.1643 76.3332 27.4863 72.3053 29.1058L79.3231 39.321H68.4434L62.4638 30.1855H55.9858ZM55.9858 22.877H65.6612C68.1112 22.877 69.3985 21.7558 69.3985 20.1363C69.3985 18.4338 68.1112 17.3126 65.6612 17.3126H55.9858V22.877Z" fill="white"/>
<path d="M84.6514 39.321V9.50586H100.597C111.767 9.50586 118.495 15.3194 118.495 24.4135C118.495 33.5075 111.767 39.321 100.597 39.321H84.6514ZM93.87 31.4312H100.597C106.161 31.4312 109.151 28.649 109.151 24.4135C109.151 20.1779 106.161 17.3957 100.597 17.3957H93.87V31.4312Z" fill="white"/>
<path d="M17.6281 60.2316H15.5728L11.8575 49.2637V60.2316H9.50586V46.0425H12.984L16.64 56.9116L20.2959 46.0425H23.695V60.2316H21.3433V49.2637L17.6281 60.2316Z" fill="white"/>
<path d="M32.8352 46.0425H35.7007L41.076 60.2316H38.5267L37.3015 56.9907H31.1752L29.9697 60.2316H27.46L32.8352 46.0425ZM34.2186 48.8487L32.0052 54.7773H36.4715L34.2186 48.8487Z" fill="white"/>
<path d="M56.5202 46.0425V60.2316H54.3068L47.2716 49.817V60.2316H44.8408V46.0425H47.4494L54.0895 55.9828V46.0425H56.5202Z" fill="white"/>
<path d="M65.6604 46.0425H68.5259L73.9012 60.2316H71.3519L70.1267 56.9907H64.0004L62.7949 60.2316H60.2852L65.6604 46.0425ZM67.0438 48.8487L64.8304 54.7773H69.2967L67.0438 48.8487Z" fill="white"/>
<path d="M87.883 60.2317V58.7693C87.3099 59.7179 85.9266 60.4491 84.0689 60.4491C80.3932 60.4491 77.666 57.4848 77.666 53.1964C77.666 48.8883 80.4129 45.8252 84.227 45.8252C87.132 45.8252 89.0885 47.3864 89.958 49.8962L87.547 50.7064C87.132 49.0266 85.9463 48.0583 84.2468 48.0583C81.8556 48.0583 80.1956 50.0938 80.1956 53.1569C80.1956 56.22 81.8556 58.2753 84.2863 58.2753C86.3416 58.2753 87.6854 56.8129 87.7644 54.7972H84.0294V52.5838H90.1952V60.2317H87.883Z" fill="white"/>
<path d="M93.96 46.0425H103.564V48.2558H96.45V51.813H102.438V54.0264H96.45V58.0183H103.564V60.2316H93.96V46.0425Z" fill="white"/>
<path d="M109.859 54.7378V60.2316H107.329V46.0425H113.001C116.163 46.0425 118.139 47.5246 118.139 50.3901C118.139 52.6232 116.914 54.0461 114.839 54.5402L118.495 60.2316H115.609L112.151 54.7378H109.859ZM109.859 52.564H112.862C114.681 52.564 115.649 51.7735 115.649 50.3901C115.649 48.987 114.681 48.2163 112.862 48.2163H109.859V52.564Z" fill="white"/>
<path d="M23.2646 92.4785C26.5153 92.4786 29.633 93.7698 31.9316 96.0684C34.2304 98.3671 35.5215 101.485 35.5215 104.736C35.5214 107.16 34.8028 109.53 33.4561 111.546C32.1092 113.562 30.1948 115.133 27.9551 116.061C25.7153 116.988 23.2507 117.231 20.873 116.758C18.4953 116.285 16.3109 115.118 14.5967 113.403C12.8825 111.689 11.7151 109.505 11.2422 107.127C10.7693 104.749 11.0118 102.285 11.9395 100.045C12.8672 97.8052 14.4384 95.8908 16.4541 94.5439C18.4698 93.1971 20.8403 92.4785 23.2646 92.4785Z" stroke="#B3B3B3" stroke-width="3.00183"/>
<path d="M78.9583 104.12L80.6336 106.756H44.2383V102.716H80.6582L78.9583 105.352L73.0703 98.7L76.0266 95.9653L83.7624 104.736L76.0266 113.506L73.0703 110.772L78.9583 104.12Z" fill="#01CE53"/>
<path fill-rule="evenodd" clip-rule="evenodd" d="M97.0922 93.2962C99.3547 91.7845 102.015 90.9775 104.736 90.9775C108.385 90.9775 111.884 92.4271 114.465 95.0073C117.045 97.5875 118.494 101.087 118.494 104.736C118.494 107.457 117.687 110.117 116.176 112.38C114.664 114.642 112.515 116.406 110.001 117.447C107.487 118.488 104.721 118.761 102.052 118.23C99.3829 117.699 96.9314 116.389 95.0073 114.465C93.0831 112.54 91.7728 110.089 91.2419 107.42C90.711 104.751 90.9835 101.985 92.0248 99.4708C93.0662 96.9568 94.8296 94.808 97.0922 93.2962Z" fill="white"/>
<path d="M97.8164 106.118L102.778 110.518L111.657 98.9546" stroke="black" stroke-width="4.50275"/>
</svg>
