<svg width="128" height="128" viewBox="0 0 128 128" fill="none" xmlns="http://www.w3.org/2000/svg">
<rect width="128" height="128" fill="black"/>
<path d="M18.9321 30.7668V39.321H9.50586V9.50586H28.6906C36.2482 9.50586 41.2312 13.1601 41.2312 20.1363C41.2312 27.1126 36.2482 30.7668 28.6906 30.7668H18.9321ZM18.9321 22.9601H28.1923C30.6423 22.9601 31.9295 21.8389 31.9295 20.1363C31.9295 18.4338 30.6423 17.3126 28.1923 17.3126H18.9321V22.9601Z" fill="white"/>
<path d="M55.9858 30.1855V39.321H46.5596V9.50586H66.1595C73.8002 9.50586 78.7002 13.2847 78.7002 19.8457C78.7002 24.1643 76.3332 27.4863 72.3053 29.1058L79.3231 39.321H68.4434L62.4638 30.1855H55.9858ZM55.9858 22.877H65.6612C68.1112 22.877 69.3985 21.7558 69.3985 20.1363C69.3985 18.4338 68.1112 17.3126 65.6612 17.3126H55.9858V22.877Z" fill="white"/>
<path d="M84.6514 39.321V9.50586H100.597C111.767 9.50586 118.495 15.3194 118.495 24.4135C118.495 33.5075 111.767 39.321 100.597 39.321H84.6514ZM93.87 31.4312H100.597C106.161 31.4312 109.151 28.649 109.151 24.4135C109.151 20.1779 106.161 17.3957 100.597 17.3957H93.87V31.4312Z" fill="white"/>
<path d="M14.0179 48.5857H16.3379L20.6899 60.0737H18.6259L17.6339 57.4497H12.6739L11.6979 60.0737H9.66586L14.0179 48.5857ZM15.1379 50.8577L13.3459 55.6577H16.9619L15.1379 50.8577ZM23.6835 57.8337L25.2515 56.5377C26.0515 57.7857 27.2515 58.5057 28.5635 58.5057C29.8595 58.5057 30.8355 57.9137 30.8355 56.8097C30.8355 55.6417 29.6355 55.4817 27.9235 55.0657C26.1955 54.6497 24.3395 54.1377 24.3395 51.8977C24.3395 49.7697 26.1635 48.4097 28.4835 48.4097C30.4515 48.4097 31.9875 49.3377 32.7555 50.5377L31.2515 51.8337C30.6115 50.8417 29.7635 50.1537 28.4195 50.1537C27.1875 50.1537 26.3395 50.7777 26.3395 51.6897C26.3395 52.6977 27.2195 52.9057 28.7715 53.2577C30.6275 53.6737 32.8515 54.1057 32.8515 56.6017C32.8515 58.8577 30.8675 60.2497 28.4995 60.2497C26.5315 60.2497 24.5795 59.3057 23.6835 57.8337ZM36.2692 57.8337L37.8372 56.5377C38.6372 57.7857 39.8372 58.5057 41.1492 58.5057C42.4452 58.5057 43.4212 57.9137 43.4212 56.8097C43.4212 55.6417 42.2212 55.4817 40.5092 55.0657C38.7812 54.6497 36.9252 54.1377 36.9252 51.8977C36.9252 49.7697 38.7492 48.4097 41.0692 48.4097C43.0372 48.4097 44.5732 49.3377 45.3412 50.5377L43.8372 51.8337C43.1972 50.8417 42.3492 50.1537 41.0052 50.1537C39.7732 50.1537 38.9252 50.7777 38.9252 51.6897C38.9252 52.6977 39.8052 52.9057 41.3572 53.2577C43.2132 53.6737 45.4372 54.1057 45.4372 56.6017C45.4372 58.8577 43.4532 60.2497 41.0852 60.2497C39.1172 60.2497 37.1652 59.3057 36.2692 57.8337ZM51.9147 48.5857V60.0737H49.8667V48.5857H51.9147ZM55.9095 57.8337L57.4775 56.5377C58.2775 57.7857 59.4775 58.5057 60.7895 58.5057C62.0855 58.5057 63.0615 57.9137 63.0615 56.8097C63.0615 55.6417 61.8615 55.4817 60.1495 55.0657C58.4215 54.6497 56.5655 54.1377 56.5655 51.8977C56.5655 49.7697 58.3895 48.4097 60.7095 48.4097C62.6775 48.4097 64.2135 49.3377 64.9815 50.5377L63.4775 51.8337C62.8375 50.8417 61.9895 50.1537 60.6455 50.1537C59.4135 50.1537 58.5655 50.7777 58.5655 51.6897C58.5655 52.6977 59.4455 52.9057 60.9975 53.2577C62.8535 53.6737 65.0775 54.1057 65.0775 56.6017C65.0775 58.8577 63.0935 60.2497 60.7255 60.2497C58.7575 60.2497 56.8055 59.3057 55.9095 57.8337ZM77.8646 50.3777H74.1686V60.0737H72.1206V50.3777H68.4246V48.5857H77.8646V50.3777ZM84.2511 48.5857H86.5711L90.9231 60.0737H88.8591L87.8671 57.4497H82.9071L81.9311 60.0737H79.8991L84.2511 48.5857ZM85.3711 50.8577L83.5791 55.6577H87.1951L85.3711 50.8577ZM104.619 48.5857V60.0737H102.827L97.1309 51.6417V60.0737H95.1629V48.5857H97.2749L102.651 56.6337V48.5857H104.619ZM118.372 50.3777H114.676V60.0737H112.628V50.3777H108.932V48.5857H118.372V50.3777Z" fill="white"/>
<path d="M23.2646 92.4785C26.4139 92.4786 29.4381 93.6907 31.7139 95.8564L31.9316 96.0684C34.2304 98.3671 35.5215 101.485 35.5215 104.736C35.5214 107.16 34.8028 109.53 33.4561 111.546C32.1092 113.562 30.1948 115.133 27.9551 116.061C25.7153 116.988 23.2507 117.231 20.873 116.758C18.4953 116.285 16.3109 115.118 14.5967 113.403C12.9895 111.796 11.8631 109.776 11.3389 107.57L11.2422 107.127C10.7989 104.898 10.9842 102.593 11.7734 100.468L11.9395 100.045C12.8092 97.9452 14.2451 96.132 16.082 94.8037L16.4541 94.5439C18.4698 93.1971 20.8403 92.4785 23.2646 92.4785Z" stroke="#B3B3B3" stroke-width="3.00183"/>
<path d="M78.9583 104.12L80.6336 106.756H44.2383V102.716H80.6582L78.9583 105.352L73.0703 98.7L76.0266 95.9653L83.7624 104.736L76.0266 113.506L73.0703 110.772L78.9583 104.12Z" fill="#01CE53"/>
<path fill-rule="evenodd" clip-rule="evenodd" d="M97.0922 93.2962C99.3547 91.7845 102.015 90.9775 104.736 90.9775C108.385 90.9775 111.884 92.4271 114.465 95.0073C117.045 97.5875 118.494 101.087 118.494 104.736C118.494 107.457 117.687 110.117 116.176 112.38C114.664 114.642 112.515 116.406 110.001 117.447C107.487 118.488 104.721 118.761 102.052 118.23C99.3829 117.699 96.9314 116.389 95.0073 114.465C93.0831 112.54 91.7728 110.089 91.2419 107.42C90.711 104.751 90.9835 101.985 92.0248 99.4708C93.0662 96.9568 94.8296 94.808 97.0922 93.2962Z" fill="white"/>
<path d="M97.8164 106.118L102.778 110.518L111.657 98.9546" stroke="black" stroke-width="4.50275"/>
</svg>
